Coordinates

Units are S.I. units (second, meters, Newtons, ...)
If the header above contains a line with 'inDegrees', this indicates whether rotational values are in degrees (yes) or radians (no).

inDegrees=no
nColumns=22
nRows=21
DataType=double
version=3
OpenSimVersion=4.6-2026-03-31-d6972f9e6
endheader
time	/jointset/ground_pelvis/pelvis_tilt/value	/jointset/ground_pelvis/pelvis_list/value	/jointset/ground_pelvis/pelvis_rotation/value	/jointset/ground_pelvis/pelvis_tx/value	/jointset/ground_pelvis/pelvis_ty/value	/jointset/ground_pelvis/pelvis_tz/value	/jointset/hip_r/hip_flexion_r/value	/jointset/hip_r/hip_adduction_r/value	/jointset/hip_r/hip_rotation_r/value	/jointset/walker_knee_r/knee_angle_r/value	/jointset/patellofemoral_r/knee_angle_r_beta/value	/jointset/ankle_r/ankle_angle_r/value	/jointset/hip_l/hip_flexion_l/value	/jointset/hip_l/hip_adduction_l/value	/jointset/hip_l/hip_rotation_l/value	/jointset/walker_knee_l/knee_angle_l/value	/jointset/patellofemoral_l/knee_angle_l_beta/value	/jointset/ankle_l/ankle_angle_l/value	/jointset/back/lumbar_extension/value	/jointset/back/lumbar_bending/value	/jointset/back/lumbar_rotation/value
21.41	-0.3606596704886583	-0.1823201992345117	3.136386046486948	-3.29289940930947	0.7875217156830924	2.488712852106294	0.7051772490843368	-0.3681807460368705	0.06487614430017864	1.506965941711654	1.506965940921439	0.4775901352783349	0.5986227856947532	-0.02591151341398901	-0.07438626885180977	1.462187574380638	1.46218757552539	0.4339197451535001	-1.357828603702839	-0.09116730453067744	-0.05592678283391533
21.415	-0.3635140199161092	-0.1806208837685566	3.136056912256703	-3.294440468746111	0.7927183238095636	2.488790474723516	0.688668221416437	-0.3682257198329291	0.05783859268548724	1.491615272344686	1.491615271584581	0.47423199192231	0.5849150255708064	-0.02536442338827824	-0.07327782813303128	1.447913487932604	1.447913489037983	0.4303339091932847	-1.355001454390906	-0.09061279846141847	-0.05456128383548337
21.42	-0.3664652438427327	-0.1788685837818553	3.135703715119322	-3.296018018270382	0.7979088297250584	2.488864796693474	0.6719917786314021	-0.368140673674728	0.05077193542387012	1.47613927718164	1.476139276459886	0.4707388018737915	0.5710705299551047	-0.0249233263278268	-0.07215627679652271	1.433583050289424	1.433583051346201	0.4266215866114748	-1.352155415653182	-0.09004871875183032	-0.05314544292271561
21.425	-0.3695046329479126	-0.1770688879286546	3.13532662312641	-3.29763162711919	0.803091627598832	2.488935243792736	0.6551627223064146	-0.3679247332255177	0.04368838453620719	1.460537887103951	1.460537886428433	0.4671072462920601	0.5570967105248342	-0.02458380729770734	-0.07102750565093274	1.419191784718711	1.419191785718062	0.4227875990289607	-1.349287006332875	-0.08947907453117501	-0.05168403199731351
21.43	-0.3726234204271747	-0.1752272977560105	3.134926149503994	-3.29928075529327	0.8082651251039964	2.489001257894313	0.6381957696633513	-0.3675775183539741	0.03659962946477526	1.444810740464883	1.444810739843253	0.4633346728954612	0.5430010757482108	-0.02434122859231724	-0.0698972482903058	1.404734852504294	1.404734853438272	0.4188373031143615	-1.346393013261576	-0.08890757577845278	-0.05018171253582439
21.435	-0.3758128341253927	-0.1733491481532554	3.13450317789101	-3.300964758875216	0.8134277379739414	2.48906230327034	0.6211054453110169	-0.3670990919863134	0.02951672140012023	1.42895721821445	1.428957217654299	0.4594190509848055	0.528791224206774	-0.02419081932107418	-0.06877101291720428	1.39020715337281	1.390207154234812	0.4147764956110893	-1.343470494892771	-0.08833756138157414	-0.04864297359485072
21.44	-0.3790641934601016	-0.1714395229121954	3.134058983891948	-3.302682895879551	0.8185778903587405	2.489117874509806	0.603905907593562	-0.3664899028108003	0.0224499524276025	1.412976462221185	1.412976461730213	0.4553589396334071	0.5144747828908458	-0.02412775960172448	-0.06765399667168519	1.375603424288406	1.37560342507359	0.4106113274689884	-1.340516826594956	-0.08777191587694724	-0.04707206712151497
21.445	-0.3823690380891829	-0.169503168898797	3.133595250088517	-3.304434332708341	0.8237140195197438	2.489167504927949	0.5866107308630972	-0.3657507204543786	0.01540873960136936	1.396867381976586	1.396867381562718	0.451153471573628	0.5000593047742153	-0.02414726203097346	-0.06655099572457475	1.360918336325111	1.360918337030717	0.4063482313175765	-1.337529775733604	-0.08721298312656052	-0.04547294318485387
21.45	-0.385719244862502	-0.1675444218067668	3.133114070282245	-3.306218151843015	0.8288345793248121	2.489210773804107	0.5692327148307704	-0.364882566325671	0.008401540311772758	1.380628673154901	1.380628672826262	0.4468023407657172	0.4855521770006823	-0.02424465035591548	-0.06546633817376804	1.346146595778858	1.346146596404398	0.4019938544349545	-1.334507563576094	-0.08666249674238562	-0.04384919642518102
21.455	-0.389107087281562	-0.1655671580284522	3.132617939450637	-3.308033361419906	0.8339380367034153	2.489247311192115	0.5517837964274227	-0.3638866469023641	0.001435825058532819	1.364258874311838	1.36425887407655	0.4423057771076631	0.4709605943275783	-0.02441543196250836	-0.06440386460991165	1.331283056779036	1.331283057326334	0.3975549843154075	-1.331448868463049	-0.08612154696175163	-0.04220403650503255
21.46	-0.3925252201882843	-0.1635747795255021	3.132109727776584	-3.309878906767258	0.8390228590280421	2.48927680007932	0.5342750935250882	-0.3627642956666862	-0.005481882574467015	1.347756471325962	1.347756471191788	0.4376644994978651	0.4562916181393918	-0.02465535925333973	-0.06336696333521273	1.316322846768633	1.316322847241723	0.3930384588304839	-1.328352753593831	-0.08559059192176155	-0.04054028787906082
21.465	-0.3959666155331207	-0.1615702261069093	3.131592639542509	-3.311753683188063	0.8440874962920764	2.489298976761941	0.5167170384733941	-0.3615169254895628	-0.01234591347638444	1.331120029699292	1.331120029673203	0.4328796519859905	0.4415522880444302	-0.02496047570167837	-0.06235864171952114	1.301261494709214	1.301261495114114	0.3884510629005063	-1.325218546753667	-0.0850695042626959	-0.03886041301624487
21.47	-0.3994245029650801	-0.15955600021962	3.131070160397912	-3.313656548775299	0.8491303658887158	2.489313630823084	0.499119511520389	-0.3601459890072318	-0.01915134199544728	1.314348313788041	1.314348313875738	0.4279527375269226	0.4267497181158376	-0.02532714470363187	-0.06138159827261594	1.286095042942473	1.286095043286855	0.3837994212015793	-1.322045727839979	-0.08455763206138972	-0.03716654651943272
21.475	-0.4028923427299374	-0.1575341948918612	3.130545995899904	-3.315586336454964	0.854149844123528	2.48932060524372	0.4814919263132774	-0.3586529449025885	-0.02589387698569538	1.297440370233659	1.297440370439049	0.4228855592268318	0.411891142802803	-0.02575206133758317	-0.06043827532287498	1.27082013133133	1.270820131624093	0.3790898946131471	-1.318833853301621	-0.08405386205693616	-0.03546053276236679
21.48	-0.4063638028634733	-0.1555065309363811	3.130024000814172	-3.317541865437011	0.8591442605808306	2.489319795785471	0.4638433122244603	-0.3570392324924486	-0.03256974027263874	1.280395594793445	1.280395595118069	0.4176801636651221	0.3969839477619213	-0.0262322469006263	-0.0595309059124721	1.255434060688407	1.255434060939165	0.3743284782214819	-1.315582489595728	-0.08355669453680999	-0.03374397139510194
21.485	-0.4098327117254058	-0.1534744117893242	3.129508099415184	-3.31952195255101	0.864111890831628	2.489311148906373	0.4461824415437449	-0.3553062591704049	-0.03917551513719309	1.263213807719641	1.26321380816212	0.4123387770708106	0.3820357232700924	-0.02676502599024567	-0.05866157385816725	1.239934845618356	1.239934845836896	0.3695206950482999	-1.312291125778012	-0.08306433995666111	-0.03201827674148917
21.49	-0.4132930122498277	-0.1514389903160856	3.129002201166196	-3.321525423372113	0.8690509502608509	2.489294658688851	0.428517959188716	-0.3534554008638678	-0.04570798078253874	1.245895326429333	1.245895326984927	0.4068637402771063	0.3670543089347902	-0.02734798975493926	-0.05783228293525372	1.224321251855932	1.224321252051686	0.3646714905067345	-1.308959091069024	-0.08257482702300806	-0.03028474587857282
21.495	-0.4167387748685279	-0.149401232399843	3.128510116639578	-3.323551122550208	0.8739595961224824	2.489270363633329	0.4108584215455343	-0.3514880093705331	-0.05216396679583717	1.228440997752548	1.228440998412911	0.4012574610915115	0.3520477587348196	-0.02797895282489002	-0.05704501704151374	1.208592802332521	1.208592802514105	0.3597851446664055	-1.305585535121902	-0.08208610194501167	-0.02854462087926544
21.5	-0.4201642998817453	-0.1473619673966995	3.128035476205647	-3.325597922756764	0.8788359418623536	2.489238343721357	0.3932121922152549	-0.3494054203771607	-0.05854024661346041	1.210852163180057	1.210852163933248	0.3955223945863301	0.33702418705941	-0.02865590787219549	-0.05630177570400356	1.192749741095181	1.192749741270005	0.354865215268482	-1.302169503463823	-0.08159610769308215	-0.02679913343140303
21.505	-0.4235642851094854	-0.1453219292757475	3.127581652374797	-3.327664732075876	0.8836780807401662	2.489198717613548	0.3755872309235829	-0.3472089636620342	-0.06483346093070126	1.193130567757265	1.193130568588062	0.3896610413916919	0.3219915258183537	-0.02937697327244917	-0.05560458182992771	1.176792960311749	1.176792960485732	0.3499145070211522	-1.298710085273615	-0.08110284860930898	-0.02504953205941312
21.51	-0.4269339912160873	-0.1432818032230157	3.127151684845172	-3.329750500268308	0.8884841100333718	2.489151639242446	0.3579908824214376	-0.3448999842261071	-0.07104004122352511	1.175278256463949	1.17527825735446	0.3836759430670146	0.3069572777924893	-0.03014032579790922	-0.05495547677153198	1.160723910219543	1.160723910396922	0.3449350513411703	-1.295206565890753	-0.08060445913060053	-0.02329710361218518
